PathFileType	4	(X/Y/Z)	/Users/itak/Documents/Research/Walk-IL/dataset/trc/00190_00008.trc
DataRate	CameraRate	NumFrames	NumMarkers	Units	OrigDataRate	OrigDataStartFrame	OrigNumFrames
100.000000	100.000000	4	53	mm	100.000000	384	769
Frame#	Time	RPSI			LPSI			L3			STRN			T10			C7			CLAV			RBAK			LBAK			LSHO			LUPA			LAEL			LAOL			LWTS			LWPS			LFRA			LIFD			LHPS			LHTS			RSHO			RUPA			RAEL			RAOL			RWTS			RWPS			RFRA			RIFD			RHTS			RHPS			RBHD			LFHD			RFHD			LBHD			LHIP			RHIP			RASI			LASI			LKNE			LTHI			LANK			LTIP			LTOE			LMT1			LMT5			LHEE			RKNE			RTHI			RANK			RTIP			RTOE			RMT1			RMT5			RHEE			
		X1	Y1	Z1	X2	Y2	Z2	X3	Y3	Z3	X4	Y4	Z4	X5	Y5	Z5	X6	Y6	Z6	X7	Y7	Z7	X8	Y8	Z8	X9	Y9	Z9	X10	Y10	Z10	X11	Y11	Z11	X12	Y12	Z12	X13	Y13	Z13	X14	Y14	Z14	X15	Y15	Z15	X16	Y16	Z16	X17	Y17	Z17	X18	Y18	Z18	X19	Y19	Z19	X20	Y20	Z20	X21	Y21	Z21	X22	Y22	Z22	X23	Y23	Z23	X24	Y24	Z24	X25	Y25	Z25	X26	Y26	Z26	X27	Y27	Z27	X28	Y28	Z28	X29	Y29	Z29	X30	Y30	Z30	X31	Y31	Z31	X32	Y32	Z32	X33	Y33	Z33	X34	Y34	Z34	X35	Y35	Z35	X36	Y36	Z36	X37	Y37	Z37	X38	Y38	Z38	X39	Y39	Z39	X40	Y40	Z40	X41	Y41	Z41	X42	Y42	Z42	X43	Y43	Z43	X44	Y44	Z44	X45	Y45	Z45	X46	Y46	Z46	X47	Y47	Z47	X48	Y48	Z48	X49	Y49	Z49	X50	Y50	Z50	X51	Y51	Z51	X52	Y52	Z52	X53	Y53	Z53	

385	3.84	-426.6644287109375	1021.254760742188	-791.287841796875	-469.6218566894531	1031.543212890625	-907.3742065429688	-448.2368774414062	1063.414428710938	-847.2122802734375	-192.9903106689453	1274.106811523438	-924.3591918945312	-483.1326293945312	1220.089233398438	-841.1226196289062	-413.1245422363281	1488.262939453125	-858.3887329101562	-220.0313873291016	1387.85595703125	-917.5241088867188	-454.1580810546875	1308.307006835938	-745.46630859375	-451.8656616210938	1472.068603515625	-953.61962890625	-399.1491088867188	1466.160522460938	-1050.040771484375	-458.7084045410156	1341.114379882812	-1118.805908203125	-462.9871215820312	1130.953247070312	-1161.585327148438	-471.9107971191406	1102.758422851562	-1077.755981445312	-358.6178894042969	903.7879028320312	-1219.365112304688	-450.6230163574219	883.2501831054688	-1216.493774414062	-461.3719787597656	1024.304321289062	-1194.412719726562	-344.8159790039062	719.756103515625	-1229.700805664062	-433.3890075683594	815.572265625	-1234.309204101562	-364.93896484375	828.2886352539062	-1254.622436523438	-308.2348327636719	1456.23876953125	-703.9129028320312	-315.4775390625	1387.8583984375	-636.2485961914062	-346.3623962402344	1102.887084960938	-588.6100463867188	-362.3797912597656	1097.125244140625	-685.885009765625	-225.9195556640625	867.953857421875	-622.3408813476562	-296.1051025390625	854.5909423828125	-571.1262817382812	-323.7276306152344	1029.156982421875	-574.0560302734375	-226.7271118164062	679.2872924804688	-651.818359375	-206.5524444580078	771.6477661132812	-618.142578125	-276.2785949707031	769.73974609375	-578.3330078125	-358.7659912109375	1625.460083007812	-787.2471313476562	-197.5705413818359	1711.234375	-906.4827880859375	-192.9837646484375	1680.809326171875	-781.4796752929688	-371.6259460449219	1665.020751953125	-919.69287109375	-423.798583984375	980.1392211914062	-1055.705444335938	-238.7183227539062	979.454345703125	-736.2295532226562	-183.319580078125	1007.523742675781	-815.008056640625	-286.4830932617188	1007.823181152344	-1051.590087890625	-512.1641845703125	502.6656188964844	-1040.197875976562	-476.7405395507812	643.313232421875	-1058.29541015625	-818.46630859375	141.2334289550781	-904.9989013671875	-664.2916259765625	329.3760375976562	-990.4197387695312	-685.6436767578125	37.14030838012695	-988.5994262695312	-676.0217895507812	45.76264190673828	-932.0808715820312	-789.7913208007812	61.9448356628418	-979.8526611328125	-802.5548706054688	178.0828247070312	-829.4393310546875	-95.10433197021484	510.1802062988281	-827.0882568359375	-141.7945861816406	772.7581787109375	-761.809814453125	-102.7842025756836	30.33505821228027	-913.224609375	-62.92528533935547	394.3330383300781	-859.9468994140625	110.0059204101562	70.21068572998047	-901.4210815429688	72.29874420166016	56.6987190246582	-956.2899169921875	-2.820429086685181	37.84070205688477	-858.6621704101562	-139.6697540283203	30.28723526000977	-990.0803833007812	
386	3.85	-416.08447265625	1022.820861816406	-792.7186889648438	-457.7267150878906	1032.81787109375	-909.3170776367188	-437.1457214355469	1064.854370117188	-848.8311767578125	-181.1589965820312	1276.155517578125	-923.0191650390625	-472.1882629394531	1221.378662109375	-843.1655883789062	-402.6666870117188	1489.692626953125	-859.6719970703125	-208.7214813232422	1389.766723632812	-916.5178833007812	-444.3338623046875	1309.681030273438	-747.189697265625	-440.1362609863281	1473.477661132812	-955.2844848632812	-386.473388671875	1467.712524414062	-1051.09716796875	-445.3827209472656	1342.408447265625	-1120.032104492188	-450.0001220703125	1131.806274414062	-1160.338989257812	-459.0376892089844	1104.52197265625	-1076.217041015625	-348.2012939453125	902.7451782226562	-1215.446655273438	-440.4425659179688	883.4883422851562	-1212.527221679688	-449.4393920898438	1024.900756835938	-1191.987182617188	-337.0487365722656	718.13525390625	-1222.7080078125	-424.158447265625	815.2412109375	-1229.234375	-355.5082092285156	826.6029052734375	-1249.557983398438	-299.506103515625	1458.189453125	-704.0276489257812	-307.271240234375	1389.955688476562	-636.3577880859375	-337.5950317382812	1104.900146484375	-588.549072265625	-352.7026672363281	1099.102416992188	-685.99072265625	-215.5042572021484	870.6080932617188	-621.4210205078125	-285.9685974121094	856.8633422851562	-570.6883544921875	-314.6741638183594	1031.235229492188	-573.7957763671875	-215.2558746337891	681.8814086914062	-650.96044921875	-195.6442108154297	774.3616943359375	-617.1101684570312	-265.60498046875	772.1246948242188	-577.7611083984375	-349.0791015625	1627.17333984375	-787.7462158203125	-186.8784637451172	1712.985717773438	-905.4476928710938	-183.5175628662109	1682.486694335938	-780.3868408203125	-360.8130187988281	1666.636596679688	-920.2998657226562	-410.1127014160156	980.9155883789062	-1056.891967773438	-228.6823425292969	981.4138793945312	-735.2454833984375	-172.4046325683594	1009.710266113281	-813.3342895507812	-272.8432922363281	1009.222961425781	-1050.858154296875	-494.8051147460938	501.5462951660156	-1047.287231445312	-460.3074035644531	642.7696533203125	-1063.23974609375	-809.6212768554688	149.9268646240234	-909.071533203125	-650.787109375	331.6222229003906	-996.7462768554688	-684.5596313476562	36.2757568359375	-989.4959716796875	-672.6760864257812	46.56767654418945	-934.0482788085938	-785.3363647460938	67.18965911865234	-981.7623901367188	-791.8932495117188	187.1336059570312	-834.401123046875	-86.80015563964844	510.7178039550781	-827.5547485351562	-131.5861053466797	773.7691040039062	-761.153564453125	-102.0665969848633	30.75749778747559	-913.250244140625	-56.02899551391602	394.2605590820312	-860.7462158203125	111.6214294433594	68.06990051269531	-902.8001708984375	73.16531372070312	55.20359420776367	-957.470458984375	-1.727725625038147	37.8720703125	-859.1837768554688	-139.4266967773438	30.63998603820801	-989.87744140625	
387	3.86	-405.6412963867188	1024.207153320312	-793.94677734375	-446.0640869140625	1033.846069335938	-910.98681640625	-426.1902465820312	1066.119995117188	-850.2379150390625	-169.5410614013672	1278.070434570312	-921.6380615234375	-461.4116516113281	1222.603149414062	-845.0303344726562	-392.3098754882812	1491.058227539062	-860.8807373046875	-197.5594940185547	1391.564697265625	-915.4747924804688	-434.6162719726562	1310.9814453125	-748.79150390625	-428.5235900878906	1474.816162109375	-956.8524780273438	-373.9679260253906	1469.173095703125	-1052.064086914062	-432.1875305175781	1343.592651367188	-1121.14501953125	-437.0045166015625	1132.570068359375	-1159.10107421875	-446.190673828125	1106.1689453125	-1074.70703125	-337.5653076171875	901.766357421875	-1211.481323242188	-430.0312805175781	883.7158813476562	-1208.611450195312	-437.409912109375	1025.434814453125	-1189.584106445312	-328.9968872070312	716.6325073242188	-1215.564697265625	-414.6467590332031	814.9249877929688	-1224.167724609375	-345.8045349121094	824.9672241210938	-1244.378173828125	-290.8529357910156	1460.028442382812	-704.1032104492188	-299.1507263183594	1391.950561523438	-636.4285278320312	-328.9411926269531	1106.793579101562	-588.325927734375	-343.1748046875	1100.961547851562	-685.9203491210938	-204.9649200439453	873.3165283203125	-620.4852905273438	-275.6815795898438	859.0408935546875	-570.2588500976562	-305.690185546875	1033.185668945312	-573.4119262695312	-203.3003540039062	684.57666015625	-650.2130126953125	-184.4498596191406	777.1854248046875	-616.1206665039062	-254.6478729248047	774.4561767578125	-577.2581787109375	-339.47021484375	1628.75537109375	-788.2357177734375	-176.2893676757812	1714.616577148438	-904.4393310546875	-174.1496276855469	1684.087158203125	-779.3175659179688	-350.1055297851562	1668.143310546875	-920.8899536132812	-396.7230834960938	981.4893798828125	-1057.838256835938	-218.7750396728516	983.1759033203125	-734.1530151367188	-161.7046508789062	1011.695678710938	-811.5833129882812	-259.3841247558594	1010.652465820312	-1050.089477539062	-476.6722717285156	500.1221618652344	-1054.548217773438	-443.4624633789062	641.9777221679688	-1068.328247070312	-799.9175415039062	159.0819396972656	-913.3883056640625	-636.4733276367188	333.7865295410156	-1003.248840332031	-682.57470703125	35.24845504760742	-990.8241577148438	-668.6023559570312	48.03656768798828	-936.2572631835938	-780.0128784179688	73.23226928710938	-983.8178100585938	-780.4548950195312	196.4221954345703	-839.5517578125	-79.09063720703125	511.0199890136719	-827.9680786132812	-121.7304382324219	774.4708251953125	-760.5715942382812	-101.4348297119141	31.15598487854004	-913.2909545898438	-49.69755935668945	394.0424499511719	-861.452392578125	113.0397338867188	66.07929229736328	-903.864013671875	73.91173553466797	53.88867950439453	-958.41748046875	-0.7820139527320862	37.87347793579102	-859.646484375	-139.2117919921875	30.98839569091797	-989.6915893554688	
388	3.87	-395.3393859863281	1025.424438476562	-794.966796875	-434.6460266113281	1034.624389648438	-912.383544921875	-415.3762512207031	1067.213989257812	-851.4374389648438	-158.1692962646484	1279.8154296875	-920.2467651367188	-450.8202209472656	1223.755859375	-846.707763671875	-382.0574645996094	1492.350830078125	-862.0123901367188	-186.5506286621094	1393.224731445312	-914.422607421875	-425.0276184082031	1312.2060546875	-750.2571411132812	-417.0657653808594	1476.07080078125	-958.3177490234375	-361.65478515625	1470.513305664062	-1052.953125	-419.1563110351562	1344.622680664062	-1122.13330078125	-424.0193481445312	1133.207153320312	-1157.904174804688	-433.4118041992188	1107.646606445312	-1073.265014648438	-326.6951599121094	900.8178100585938	-1207.492797851562	-419.3618774414062	883.89501953125	-1204.803955078125	-425.2697143554688	1025.867797851562	-1187.249145507812	-320.6141357421875	715.2180786132812	-1208.347045898438	-404.8141479492188	814.5967407226562	-1219.177490234375	-335.7705688476562	823.3740234375	-1239.114013671875	-282.2522277832031	1461.730102539062	-704.1477661132812	-291.09033203125	1393.805908203125	-636.4642333984375	-320.3935241699219	1108.537841796875	-587.9378051757812	-333.8130187988281	1102.662841796875	-685.6680297851562	-194.3221130371094	876.0474853515625	-619.5380859375	-265.2619934082031	861.0916137695312	-569.84228515625	-296.7723999023438	1034.976684570312	-572.9053344726562	-190.8688812255859	687.3508911132812	-649.5663452148438	-172.989990234375	780.1011352539062	-615.1768188476562	-243.4255828857422	776.706787109375	-576.822509765625	-329.9451904296875	1630.179565429688	-788.726318359375	-165.8137969970703	1716.122314453125	-903.44970703125	-164.8859405517578	1685.6005859375	-778.2674560546875	-339.5061645507812	1669.530639648438	-921.464599609375	-383.6628112792969	981.8447875976562	-1058.554809570312	-208.9938507080078	984.7554321289062	-732.9934692382812	-151.2210540771484	1013.458435058594	-809.810302734375	-246.1809234619141	1012.065734863281	-1049.313232421875	-457.7958068847656	498.4794921875	-1061.876708984375	-426.2112426757812	640.9962768554688	-1073.503295898438	-789.3121948242188	168.6138763427734	-917.95458984375	-621.3231811523438	335.9125671386719	-1009.866394042969	-679.3926391601562	34.18642425537109	-992.5546264648438	-663.6012573242188	50.24613571166992	-938.6737670898438	-773.6260986328125	80.01975250244141	-986.0928955078125	-768.2728881835938	205.9044036865234	-844.8744506835938	-71.98008728027344	511.1080627441406	-828.3108520507812	-112.2561798095703	774.8965454101562	-760.0136108398438	-100.8915481567383	31.53387832641602	-913.3671264648438	-43.94721984863281	393.6921997070312	-862.0400390625	114.2630615234375	64.19446563720703	-904.6317138671875	74.54428863525391	52.7057991027832	-959.1435546875	0.02271950617432594	37.85264587402344	-860.0499877929688	-139.0057067871094	31.3399772644043	-989.5254516601562	
